<mxfile host="Electron" modified="2024-07-24T15:58:46.439Z" agent="Mozilla/5.0 (Macintosh; Intel Mac OS X 10_15_7) AppleWebKit/537.36 (KHTML, like Gecko) draw.io/24.5.3 Chrome/124.0.6367.207 Electron/30.0.6 Safari/537.36" etag="UFwK-rzlIlIv0EwPJegH" version="24.5.3" type="device">
  <diagram name="第 1 页" id="bDIQ_aoJVsF3thsuFDY9">
    <mxGraphModel dx="1590" dy="1123" grid="1" gridSize="10" guides="1" tooltips="1" connect="1" arrows="1" fold="1" page="1" pageScale="1" pageWidth="827" pageHeight="1169" math="0" shadow="0">
      <root>
        <mxCell id="0" />
        <mxCell id="1" parent="0" />
        <mxCell id="d77GaUKChlQi6QFSfbfe-1" value="" style="whiteSpace=wrap;html=1;" parent="1" vertex="1">
          <mxGeometry x="60" y="230" width="610" height="340" as="geometry" />
        </mxCell>
        <mxCell id="T4IE0qHCB3oZbvHqk7_4-7" value="&lt;font style=&quot;font-size: 36px;&quot;&gt;Mission&lt;/font&gt;" style="rounded=0;whiteSpace=wrap;html=1;fillColor=#8A8A8A;" parent="1" vertex="1">
          <mxGeometry x="60" y="120" width="610" height="110" as="geometry" />
        </mxCell>
        <mxCell id="T4IE0qHCB3oZbvHqk7_4-2" value="&lt;font style=&quot;font-size: 24px;&quot;&gt;00:00&lt;/font&gt;" style="rounded=1;whiteSpace=wrap;html=1;" parent="1" vertex="1">
          <mxGeometry x="80" y="145" width="120" height="60" as="geometry" />
        </mxCell>
        <mxCell id="T4IE0qHCB3oZbvHqk7_4-8" value="&lt;font size=&quot;3&quot;&gt;&amp;nbsp; &amp;nbsp;task1&lt;/font&gt;" style="rounded=1;whiteSpace=wrap;html=1;align=left;" parent="1" vertex="1">
          <mxGeometry x="120" y="280" width="410" height="50" as="geometry" />
        </mxCell>
        <mxCell id="T4IE0qHCB3oZbvHqk7_4-9" value="&lt;span style=&quot;font-size: medium;&quot;&gt;&amp;nbsp; &amp;nbsp;task2&lt;/span&gt;" style="rounded=1;whiteSpace=wrap;html=1;align=left;" parent="1" vertex="1">
          <mxGeometry x="120" y="350" width="410" height="50" as="geometry" />
        </mxCell>
        <mxCell id="T4IE0qHCB3oZbvHqk7_4-10" value="&lt;span style=&quot;font-size: medium;&quot;&gt;&amp;nbsp; &amp;nbsp;task3&lt;/span&gt;" style="rounded=1;whiteSpace=wrap;html=1;align=left;" parent="1" vertex="1">
          <mxGeometry x="120" y="420" width="410" height="50" as="geometry" />
        </mxCell>
        <mxCell id="T4IE0qHCB3oZbvHqk7_4-11" value="Start" style="rounded=1;whiteSpace=wrap;html=1;fillColor=#f5f5f5;fontColor=#333333;strokeColor=#666666;" parent="1" vertex="1">
          <mxGeometry x="580" y="130" width="60" height="25" as="geometry" />
        </mxCell>
        <mxCell id="T4IE0qHCB3oZbvHqk7_4-12" value="cancel" style="rounded=1;whiteSpace=wrap;html=1;fillColor=#f5f5f5;fontColor=#333333;strokeColor=#666666;" parent="1" vertex="1">
          <mxGeometry x="580" y="200" width="60" height="25" as="geometry" />
        </mxCell>
        <mxCell id="T4IE0qHCB3oZbvHqk7_4-14" value="Pause" style="rounded=1;whiteSpace=wrap;html=1;fillColor=#f5f5f5;fontColor=#333333;strokeColor=#666666;" parent="1" vertex="1">
          <mxGeometry x="580" y="162.5" width="60" height="25" as="geometry" />
        </mxCell>
        <mxCell id="T4IE0qHCB3oZbvHqk7_4-16" value="&lt;font style=&quot;font-size: 24px;&quot;&gt;Add&lt;/font&gt;" style="rounded=1;whiteSpace=wrap;html=1;" parent="1" vertex="1">
          <mxGeometry x="550" y="460" width="100" height="40" as="geometry" />
        </mxCell>
        <mxCell id="T4IE0qHCB3oZbvHqk7_4-17" value="&lt;font style=&quot;font-size: 24px;&quot;&gt;New&lt;/font&gt;" style="rounded=1;whiteSpace=wrap;html=1;" parent="1" vertex="1">
          <mxGeometry x="550" y="510" width="100" height="40" as="geometry" />
        </mxCell>
        <mxCell id="T4IE0qHCB3oZbvHqk7_4-20" value="" style="whiteSpace=wrap;html=1;" parent="1" vertex="1">
          <mxGeometry x="60" y="750" width="610" height="340" as="geometry" />
        </mxCell>
        <mxCell id="T4IE0qHCB3oZbvHqk7_4-21" value="&lt;font style=&quot;font-size: 36px;&quot;&gt;Mission&lt;/font&gt;" style="rounded=0;whiteSpace=wrap;html=1;fillColor=#8A8A8A;" parent="1" vertex="1">
          <mxGeometry x="60" y="640" width="610" height="110" as="geometry" />
        </mxCell>
        <mxCell id="T4IE0qHCB3oZbvHqk7_4-30" value="Start" style="rounded=1;whiteSpace=wrap;html=1;fillColor=#f5f5f5;fontColor=#333333;strokeColor=#666666;" parent="1" vertex="1">
          <mxGeometry x="580" y="655" width="60" height="25" as="geometry" />
        </mxCell>
        <mxCell id="T4IE0qHCB3oZbvHqk7_4-31" value="cancel" style="rounded=1;whiteSpace=wrap;html=1;fillColor=#f5f5f5;fontColor=#333333;strokeColor=#666666;" parent="1" vertex="1">
          <mxGeometry x="580" y="715" width="60" height="25" as="geometry" />
        </mxCell>
        <mxCell id="T4IE0qHCB3oZbvHqk7_4-32" value="Pause" style="rounded=1;whiteSpace=wrap;html=1;fillColor=#f5f5f5;fontColor=#333333;strokeColor=#666666;" parent="1" vertex="1">
          <mxGeometry x="580" y="687.5" width="60" height="25" as="geometry" />
        </mxCell>
        <mxCell id="T4IE0qHCB3oZbvHqk7_4-33" value="&lt;font style=&quot;font-size: 24px;&quot;&gt;00:00&lt;/font&gt;" style="rounded=1;whiteSpace=wrap;html=1;" parent="1" vertex="1">
          <mxGeometry x="80" y="665" width="120" height="60" as="geometry" />
        </mxCell>
        <mxCell id="T4IE0qHCB3oZbvHqk7_4-36" value="" style="curved=1;endArrow=classic;html=1;rounded=0;exitX=1.003;exitY=0.882;exitDx=0;exitDy=0;exitPerimeter=0;" parent="1" source="d77GaUKChlQi6QFSfbfe-1" edge="1">
          <mxGeometry width="50" height="50" relative="1" as="geometry">
            <mxPoint x="820" y="630" as="sourcePoint" />
            <mxPoint x="680" y="710" as="targetPoint" />
            <Array as="points">
              <mxPoint x="700" y="600" />
              <mxPoint x="740" y="620" />
            </Array>
          </mxGeometry>
        </mxCell>
        <mxCell id="T4IE0qHCB3oZbvHqk7_4-38" value="&lt;font style=&quot;font-size: 24px;&quot;&gt;&amp;nbsp;Project Name Input Area&lt;/font&gt;" style="rounded=0;whiteSpace=wrap;html=1;" parent="1" vertex="1">
          <mxGeometry x="190" y="840" width="340" height="60" as="geometry" />
        </mxCell>
        <mxCell id="T4IE0qHCB3oZbvHqk7_4-39" value="&lt;font style=&quot;font-size: 24px;&quot;&gt;OK&lt;/font&gt;" style="rounded=1;whiteSpace=wrap;html=1;" parent="1" vertex="1">
          <mxGeometry x="530" y="990" width="100" height="40" as="geometry" />
        </mxCell>
        <mxCell id="T4IE0qHCB3oZbvHqk7_4-41" value="" style="curved=1;endArrow=classic;html=1;rounded=0;exitX=1.005;exitY=0.771;exitDx=0;exitDy=0;exitPerimeter=0;" parent="1" source="T4IE0qHCB3oZbvHqk7_4-20" edge="1">
          <mxGeometry width="50" height="50" relative="1" as="geometry">
            <mxPoint x="690" y="1020" as="sourcePoint" />
            <mxPoint x="690" y="370" as="targetPoint" />
            <Array as="points">
              <mxPoint x="720" y="980" />
              <mxPoint x="790" y="850" />
              <mxPoint x="790" y="730" />
              <mxPoint x="810" y="430" />
            </Array>
          </mxGeometry>
        </mxCell>
      </root>
    </mxGraphModel>
  </diagram>
</mxfile>
